<?xml version="1.0" encoding="UTF-8" standalone="no"?>
<svg
   xmlns:dc="http://purl.org/dc/elements/1.1/"
   xmlns:cc="http://creativecommons.org/ns#"
   xmlns:rdf="http://www.w3.org/1999/02/22-rdf-syntax-ns#"
   xmlns:svg="http://www.w3.org/2000/svg"
   xmlns="http://www.w3.org/2000/svg"
   xmlns:sodipodi="http://sodipodi.sourceforge.net/DTD/sodipodi-0.dtd"
   xmlns:inkscape="http://www.inkscape.org/namespaces/inkscape"
   viewBox="0 0 512 512"
   version="1.1"
   id="svg4"
   sodipodi:docname="action-import-asset.svg"
   inkscape:version="1.0.1 (3bc2e813f5, 2020-09-07)">
  <metadata
     id="metadata10">
    <rdf:RDF>
      <cc:Work
         rdf:about="">
        <dc:format>image/svg+xml</dc:format>
        <dc:type
           rdf:resource="http://purl.org/dc/dcmitype/StillImage" />
      </cc:Work>
    </rdf:RDF>
  </metadata>
  <defs
     id="defs8" />
  <sodipodi:namedview
     pagecolor="#ffffff"
     bordercolor="#666666"
     borderopacity="1"
     objecttolerance="10"
     gridtolerance="10"
     guidetolerance="10"
     inkscape:pageopacity="0"
     inkscape:pageshadow="2"
     inkscape:window-width="1920"
     inkscape:window-height="1017"
     id="namedview6"
     showgrid="false"
     inkscape:zoom="1.4453125"
     inkscape:cx="256"
     inkscape:cy="256"
     inkscape:window-x="-8"
     inkscape:window-y="-8"
     inkscape:window-maximized="1"
     inkscape:current-layer="svg4"
     inkscape:document-rotation="0" />
  <!--! Font Awesome Pro 6.3.0 by @fontawesome - https://fontawesome.com License - https://fontawesome.com/license (Commercial License) Copyright 2023 Fonticons, Inc. -->
  <path
     d="M128 64c0-35.3 28.7-64 64-64H352V128c0 17.7 14.3 32 32 32H512V448c0 35.3-28.7 64-64 64H192c-35.3 0-64-28.7-64-64V336H302.1l-39 39c-9.4 9.4-9.4 24.6 0 33.9s24.6 9.4 33.9 0l80-80c9.4-9.4 9.4-24.6 0-33.9l-80-80c-9.4-9.4-24.6-9.4-33.9 0s-9.4 24.6 0 33.9l39 39H128V64zm0 224v48H24c-13.3 0-24-10.7-24-24s10.7-24 24-24H128zM512 128H384V0L512 128z"
     id="path2"
     style="fill:#4ec9b0;fill-opacity:1" />
</svg>
